<?xml version="1.0" encoding="UTF-8" standalone="no"?>
<!DOCTYPE svg PUBLIC "-//W3C//DTD SVG 1.1//EN" "http://www.w3.org/Graphics/SVG/1.1/DTD/svg11.dtd">
<svg width="100%" height="100%" viewBox="0 0 2778 2778" version="1.1" xmlns="http://www.w3.org/2000/svg" xmlns:xlink="http://www.w3.org/1999/xlink" xml:space="preserve" xmlns:serif="http://www.serif.com/" style="fill-rule:evenodd;clip-rule:evenodd;stroke-linejoin:round;stroke-miterlimit:1.41421;">
    <g transform="matrix(5.55556,0,0,5.55556,0,0)">
        <g transform="matrix(2.36235,0,0,2.36235,-624.214,-207.902)">
            <path d="M360.191,189.877C361.801,188.539 363.321,187.276 364.22,186.377L366.875,183.756C359.279,177.35 349.439,168.038 349.439,154.168L349.439,131.744L358.259,140.564L365.096,133.727L344.669,113.299L324.111,133.86L330.948,140.697L339.768,131.877L339.768,154.168C339.768,171.658 351.125,183.011 359.663,190.317C359.836,190.173 360.022,190.018 360.191,189.877Z" style="fill:white;fill-rule:nonzero;"/>
        </g>
        <g transform="matrix(2.36235,0,0,2.36235,-624.214,-207.902)">
            <path d="M379.932,195.816C378.322,197.153 376.801,198.417 375.903,199.315L373.247,201.937C380.843,208.343 390.684,217.655 390.684,231.525L390.684,269.457L390.742,269.457C390.741,269.499 390.731,269.538 390.731,269.58C390.731,272.224 392.874,274.368 395.519,274.368C398.163,274.368 400.307,272.224 400.307,269.58C400.307,269.538 400.295,269.499 400.294,269.457L400.355,269.457L400.355,231.525C400.355,214.035 388.997,202.682 380.459,195.376C380.286,195.52 380.101,195.675 379.932,195.816Z" style="fill:white;fill-rule:nonzero;"/>
        </g>
        <g transform="matrix(2.36235,0,0,2.36235,-624.214,-207.902)">
            <path d="M375.025,133.727L381.862,140.564L390.683,131.743L390.683,154.168C390.683,169.27 379.005,178.982 371.277,185.407C369.628,186.777 368.186,187.985 366.973,189.13L366.955,189.112C365.945,190.123 364.424,191.388 362.662,192.852C354.101,199.97 339.769,211.886 339.769,231.524L339.769,269.458L339.827,269.458C339.826,269.499 339.816,269.538 339.816,269.58C339.816,272.224 341.959,274.368 344.604,274.368C347.248,274.368 349.392,272.224 349.392,269.58C349.392,269.538 349.381,269.499 349.38,269.458L349.44,269.458L349.44,231.524C349.44,216.423 361.117,206.712 368.846,200.288C370.494,198.917 371.937,197.709 373.15,196.563L373.167,196.581C374.178,195.57 375.698,194.304 377.46,192.841C386.022,185.722 400.354,173.806 400.354,154.168L400.354,131.877L409.175,140.697L416.012,133.86L395.451,113.299L375.025,133.727Z" style="fill:white;fill-rule:nonzero;"/>
        </g>
    </g>
</svg>
