<?xml version="1.0" encoding="UTF-8" standalone="no"?>
<!DOCTYPE svg PUBLIC "-//W3C//DTD SVG 1.1//EN" "http://www.w3.org/Graphics/SVG/1.1/DTD/svg11.dtd">
<svg width="100%" height="100%" viewBox="0 0 2778 2778" version="1.1" xmlns="http://www.w3.org/2000/svg" xmlns:xlink="http://www.w3.org/1999/xlink" xml:space="preserve" xmlns:serif="http://www.serif.com/" style="fill-rule:evenodd;clip-rule:evenodd;stroke-linejoin:round;stroke-miterlimit:1.41421;">
    <g transform="matrix(5.55556,0,0,5.55556,0,0)">
        <g transform="matrix(4.16667,0,0,4.16667,-25.7208,-29.6937)">
            <path d="M36.13,60.358L36.13,26.443C56.159,26.443 76.188,26.443 96.215,26.443L96.215,60.358L66.858,60.358L66.298,56.762C66.079,55.877 65.339,55.025 64.458,54.758L58.74,52.881C58.14,52.7 57.613,51.987 57.613,51.387C58.456,50.505 58.657,49.34 58.924,48.302L59.296,48.084C59.795,46.72 59.952,45.507 59.891,44.391L59.615,44.179C59.688,43.168 59.659,41.348 59.176,40.457C57.33,37.049 51.358,37.049 49.512,40.457C49.028,41.348 49,43.168 49.072,44.179L48.796,44.391C48.736,45.507 48.893,46.72 49.391,48.084L49.764,48.302C50.031,49.34 50.231,50.505 51.074,51.387C51.074,52.145 50.452,52.729 49.752,52.941L44.23,54.758C43.349,55.025 42.609,55.877 42.39,56.762L41.829,60.358L36.13,60.358ZM40.736,80.048C42.55,82.909 42.132,88.103 41.004,91.186L58.217,91.186C57.037,87.953 56.628,82.545 58.76,79.647L55.187,78.475C54.527,78.275 53.95,77.493 53.95,76.835C54.875,75.866 55.095,74.588 55.388,73.448L55.797,73.208C56.345,71.712 56.517,70.38 56.45,69.155L56.147,68.922C56.226,67.812 56.195,65.814 55.665,64.836C53.638,61.095 47.083,61.095 45.056,64.836C44.525,65.814 44.494,67.812 44.574,68.922L44.271,69.155C44.204,70.38 44.376,71.712 44.923,73.208L45.332,73.448C45.626,74.588 45.846,75.866 46.771,76.835C46.771,77.667 46.087,78.307 45.319,78.54L40.736,80.048ZM72.361,80.048C74.175,82.909 73.757,88.103 72.629,91.186L89.842,91.186C88.662,87.953 88.253,82.545 90.385,79.647L86.812,78.475C86.152,78.275 85.575,77.493 85.575,76.835C86.5,75.866 86.72,74.588 87.013,73.448L87.422,73.208C87.97,71.712 88.142,70.38 88.075,69.155L87.772,68.922C87.851,67.812 87.82,65.814 87.29,64.836C85.263,61.095 78.708,61.095 76.681,64.836C76.15,65.814 76.119,67.812 76.199,68.922L75.896,69.155C75.829,70.38 76.001,71.712 76.548,73.208L76.957,73.448C77.251,74.588 77.471,75.866 78.396,76.835C78.396,77.667 77.712,78.307 76.944,78.54L72.361,80.048ZM18.173,104.435L19.884,104.435L20.676,99.36C20.916,98.389 21.729,97.453 22.696,97.16L28.757,95.165C29.526,94.932 30.21,94.292 30.21,93.46C29.284,92.492 29.064,91.213 28.771,90.073L28.361,89.833C27.814,88.337 27.642,87.005 27.709,85.78L28.012,85.547C27.932,84.437 27.963,82.439 28.494,81.461C30.521,77.72 37.076,77.72 39.103,81.461C39.633,82.439 39.665,84.437 39.585,85.547L39.888,85.78C39.955,87.005 39.783,88.337 39.235,89.833L38.826,90.073C38.533,91.213 38.314,92.491 37.388,93.46C37.388,94.118 37.965,94.901 38.625,95.1L44.901,97.16C45.869,97.453 46.681,98.389 46.921,99.36L47.713,104.435L51.509,104.435L52.301,99.36C52.541,98.389 53.354,97.453 54.321,97.16L60.382,95.165C61.151,94.932 61.835,94.292 61.835,93.46C60.909,92.492 60.689,91.213 60.396,90.073L59.986,89.833C59.439,88.337 59.267,87.005 59.334,85.78L59.637,85.547C59.557,84.437 59.588,82.439 60.119,81.461C62.146,77.72 68.701,77.72 70.728,81.461C71.258,82.439 71.29,84.437 71.21,85.547L71.513,85.78C71.58,87.005 71.408,88.337 70.86,89.833L70.451,90.073C70.158,91.213 69.939,92.491 69.013,93.46C69.013,94.118 69.59,94.901 70.25,95.1L76.526,97.16C77.494,97.453 78.306,98.389 78.546,99.36L79.338,104.435L83.134,104.435L83.926,99.36C84.166,98.389 84.979,97.453 85.946,97.16L92.007,95.165C92.776,94.932 93.46,94.292 93.46,93.46C92.534,92.492 92.314,91.213 92.021,90.073L91.611,89.833C91.064,88.337 90.892,87.005 90.959,85.78L91.262,85.547C91.182,84.437 91.213,82.439 91.744,81.461C93.771,77.72 100.327,77.72 102.354,81.461C102.884,82.439 102.915,84.437 102.835,85.547L103.138,85.78C103.205,87.005 103.033,88.337 102.486,89.833L102.077,90.073C101.784,91.213 101.564,92.491 100.638,93.46C100.638,94.118 101.216,94.901 101.875,95.1L108.152,97.16C109.119,97.453 109.931,98.389 110.172,99.36L110.963,104.435L114.173,104.435L114.173,107.81L18.173,107.81L18.173,104.435Z" style="fill:white;"/>
        </g>
    </g>
</svg>
