<?xml version="1.0" encoding="UTF-8" standalone="no"?>
<!DOCTYPE svg PUBLIC "-//W3C//DTD SVG 1.1//EN" "http://www.w3.org/Graphics/SVG/1.1/DTD/svg11.dtd">
<svg width="100%" height="100%" viewBox="0 0 2778 2778" version="1.1" xmlns="http://www.w3.org/2000/svg" xmlns:xlink="http://www.w3.org/1999/xlink" xml:space="preserve" xmlns:serif="http://www.serif.com/" style="fill-rule:evenodd;clip-rule:evenodd;stroke-linejoin:round;stroke-miterlimit:1.41421;">
    <g transform="matrix(5.55556,0,0,5.55556,0,0)">
        <g transform="matrix(0.1,0,0,0.1,0,0)">
            <path d="M641.703,1587.41C727.461,1618.09 826.875,1599.31 895.516,1530.67C964.125,1462.06 982.898,1362.65 952.211,1276.9L1287.73,941.375L1288.33,941.93C1595.11,645.914 2058.55,608.867 2405.07,830.211L2299.06,936.211C2029.21,900.602 1746.57,985.602 1539.29,1192.88L2527.54,2181.15L2208.58,2500.15L1545.13,1836.7C1518.92,1810.49 1488.03,1791.71 1455.27,1780C1369.6,1749.35 1270.11,1768.09 1201.5,1836.7C1132.9,1905.3 1114.12,2004.8 1144.8,2090.47L857.047,2378.23L353.984,1875.13L641.703,1587.41Z" style="fill:white;fill-rule:nonzero;"/>
        </g>
        <g transform="matrix(0.1,0,0,0.1,0,0)">
            <path d="M2453.34,2426.59C2592.23,2287.71 2817.3,2287.67 2956.29,2426.43L4234.78,3704.91C4373.5,3843.84 4373.54,4068.95 4234.62,4207.86C4095.82,4346.66 3870.71,4346.66 3731.71,4208.02L2453.19,2929.49C2314.51,2790.46 2314.55,2565.38 2453.34,2426.59Z" style="fill:white;fill-rule:nonzero;"/>
        </g>
        <g transform="matrix(0.1,0,0,0.1,0,0)">
            <path d="M1277.77,4056.59C1222.27,4001.05 1222.19,3910.93 1277.77,3855.38C1333.35,3799.8 1423.48,3799.84 1478.98,3855.34C1534.56,3910.93 1534.56,4001.05 1478.98,4056.59C1423.48,4112.14 1333.35,4112.18 1277.77,4056.59ZM4444.16,1867.63C4624.97,1686.82 4683.97,1430.94 4622.59,1200.47L4344.84,1478.23C4209.92,1613.21 3991.09,1613.21 3856.1,1478.23C3721.2,1343.32 3721.2,1124.48 3856.1,989.531L4133.86,711.773C3903.42,650.359 3647.59,709.438 3466.78,890.234C3289,1067.98 3229.13,1318.34 3285.5,1545.8L1126.42,3704.88C987.703,3843.84 987.703,4068.95 1126.59,4207.82C1265.38,4346.66 1490.57,4346.7 1629.45,4207.98L3788.61,2048.9C4016.02,2105.28 4266.38,2045.37 4444.16,1867.63Z" style="fill:white;fill-rule:nonzero;"/>
        </g>
    </g>
</svg>
