<?xml version="1.0" encoding="UTF-8" standalone="no"?>
<!DOCTYPE svg PUBLIC "-//W3C//DTD SVG 1.1//EN" "http://www.w3.org/Graphics/SVG/1.1/DTD/svg11.dtd">
<svg width="100%" height="100%" viewBox="0 0 2778 2778" version="1.1" xmlns="http://www.w3.org/2000/svg" xmlns:xlink="http://www.w3.org/1999/xlink" xml:space="preserve" xmlns:serif="http://www.serif.com/" style="fill-rule:evenodd;clip-rule:evenodd;stroke-linejoin:round;stroke-miterlimit:1.41421;">
    <g transform="matrix(5.55556,0,0,5.55556,0,0)">
        <g transform="matrix(434.061,0,0,434.061,-13841.8,-4101.46)">
            <rect x="32.194" y="10.013" width="0.539" height="0.024" style="fill:white;fill-rule:nonzero;"/>
        </g>
        <g transform="matrix(434.061,0,0,434.061,-13841.8,-4101.46)">
            <rect x="32.194" y="10.079" width="0.539" height="0.026" style="fill:white;fill-rule:nonzero;"/>
        </g>
        <g transform="matrix(434.061,0,0,434.061,-13841.8,-4101.46)">
            <rect x="32.194" y="10.148" width="0.539" height="0.023" style="fill:white;fill-rule:nonzero;"/>
        </g>
        <g transform="matrix(434.061,0,0,434.061,-13841.8,-4101.46)">
            <rect x="32.194" y="10.22" width="0.539" height="0.02" style="fill:white;fill-rule:nonzero;"/>
        </g>
        <g transform="matrix(434.061,0,0,434.061,-13841.8,-4101.46)">
            <rect x="32.194" y="10.28" width="0.539" height="0.025" style="fill:white;fill-rule:nonzero;"/>
        </g>
        <g transform="matrix(434.061,0,0,434.061,-13841.8,-4101.46)">
            <rect x="32.194" y="10.349" width="0.539" height="0.026" style="fill:white;fill-rule:nonzero;"/>
        </g>
        <g transform="matrix(434.061,0,0,434.061,-13841.8,-4101.46)">
            <path d="M32.733,9.928L32.729,9.928L32.729,9.82L32.679,9.82L32.679,9.928L32.657,9.928L32.657,9.706L32.61,9.706L32.61,9.928L32.591,9.928L32.591,9.741L32.544,9.741L32.544,9.928L32.525,9.928L32.525,9.787L32.477,9.787L32.477,9.928L32.455,9.928L32.455,9.871L32.407,9.871L32.407,9.928L32.387,9.928L32.387,9.804L32.345,9.804L32.345,9.928L32.322,9.928L32.322,9.718L32.281,9.718L32.281,9.928L32.25,9.928L32.25,9.816L32.203,9.816L32.203,9.928L32.194,9.928L32.194,9.952L32.733,9.952L32.733,9.928Z" style="fill:white;fill-rule:nonzero;"/>
        </g>
        <g transform="matrix(434.061,0,0,434.061,-13841.8,-4101.46)">
            <path d="M32.794,10.417L32.134,10.417L32.134,9.634L32.794,9.634L32.794,10.417ZM32.095,9.593L32.095,10.457L32.835,10.457L32.835,9.593L32.095,9.593Z" style="fill:white;fill-rule:nonzero;"/>
        </g>
    </g>
</svg>
