<?xml version="1.0" encoding="UTF-8" standalone="no"?><!DOCTYPE svg PUBLIC "-//W3C//DTD SVG 1.1//EN" "http://www.w3.org/Graphics/SVG/1.1/DTD/svg11.dtd"><svg width="100%" height="100%" viewBox="0 0 590 620" version="1.1" xmlns="http://www.w3.org/2000/svg" xmlns:xlink="http://www.w3.org/1999/xlink" xml:space="preserve" xmlns:serif="http://www.serif.com/" style="fill-rule:evenodd;clip-rule:evenodd;stroke-linecap:round;stroke-linejoin:round;stroke-miterlimit:1.5;"><rect id="Artboard1" x="0" y="0" width="590" height="620" style="fill:none;"/><path d="M18.463,262.385c0,-3.318 1.646,-6.42 4.394,-8.28c2.747,-1.861 6.239,-2.237 9.32,-1.005c50.434,20.174 225.207,90.083 273.714,109.486c7.593,3.037 12.572,10.391 12.572,18.57c0,50.704 0,226.459 0,226.459l-300,-120c0,0 0,-172.979 0,-225.23Z" style="fill:none;stroke:#fff;stroke-width:12px;"/><path d="M456.857,552.257c1.898,-0.759 3.143,-2.598 3.143,-4.642c0,-2.045 -1.245,-3.883 -3.143,-4.643c-35.206,-14.082 -138.394,-55.357 -138.394,-55.357l0,120c0,0 103.188,-41.276 138.394,-55.358Z" style="fill:none;stroke:#fff;stroke-width:12px;"/><g><circle cx="443.603" cy="110.117" r="40.117" style="fill:#fff;"/><path d="M515.813,166.28l-144.421,0l32.094,192.561l80.234,0l32.093,-192.561Z" style="fill:#fff;"/><path d="M402.626,177.94c-8.09,-8.09 -21.227,-8.09 -29.317,0l-64.715,64.715c-8.091,8.091 -8.091,21.227 0,29.317c8.09,8.091 21.226,8.091 29.317,0l64.715,-64.715c8.09,-8.09 8.09,-21.227 0,-29.317Z" style="fill:#fff;"/><path d="M244.14,178.726c7.946,-7.946 20.848,-7.946 28.793,0l64.716,64.715c7.946,7.946 7.946,20.848 0,28.793c-7.946,7.946 -20.848,7.946 -28.794,0l-64.715,-64.715c-7.946,-7.946 -7.946,-20.848 0,-28.793Z" style="fill:#fff;"/><path d="M479.746,172.348c-8.09,8.09 -8.09,21.227 0,29.317l64.716,64.716c8.09,8.09 21.227,8.09 29.317,0c8.09,-8.091 8.09,-21.227 0,-29.317l-64.716,-64.716c-8.09,-8.09 -21.226,-8.09 -29.317,0Z" style="fill:#fff;"/><path d="M480.532,330.834c-7.946,-7.946 -7.946,-20.847 0,-28.793l64.715,-64.716c7.946,-7.945 20.848,-7.945 28.794,0c7.945,7.946 7.945,20.848 0,28.794l-64.716,64.715c-7.945,7.946 -20.847,7.946 -28.793,0Z" style="fill:#fff;"/></g><rect x="180" y="30" width="380.75" height="251.672" style="fill:none;stroke:#fff;stroke-width:12px;"/></svg>