<?xml version="1.0" encoding="UTF-8" standalone="no"?>
<!DOCTYPE svg PUBLIC "-//W3C//DTD SVG 1.1//EN" "http://www.w3.org/Graphics/SVG/1.1/DTD/svg11.dtd">
<svg width="100%" height="100%" viewBox="0 0 2778 2778" version="1.1" xmlns="http://www.w3.org/2000/svg" xmlns:xlink="http://www.w3.org/1999/xlink" xml:space="preserve" xmlns:serif="http://www.serif.com/" style="fill-rule:evenodd;clip-rule:evenodd;stroke-linejoin:round;stroke-miterlimit:1.41421;">
    <g transform="matrix(5.55556,0,0,5.55556,0,0)">
        <g transform="matrix(267.493,0,0,267.493,-10267.4,-10980.6)">
            <path d="M39.242,42.18L39.081,42.104L39.1,42.069L39.259,42.149L39.242,42.18ZM39.203,42.271L39.039,42.183L39.051,42.16L39.215,42.239L39.203,42.271ZM38.984,42.708L38.822,42.628L38.835,42.599L38.996,42.681L38.984,42.708ZM38.773,42.669L38.981,42.772L39.306,42.116L39.104,42.013L38.773,42.669Z" style="fill:rgb(37,40,38);fill-rule:nonzero;"/>
        </g>
        <g transform="matrix(267.493,0,0,267.493,-10267.4,-10980.6)">
            <path d="M39.373,42.664L39.562,42.664L39.562,42.697L39.373,42.697L39.373,42.664ZM39.373,42.171L39.562,42.171L39.562,42.204L39.373,42.204L39.373,42.171ZM39.373,42.078L39.562,42.078L39.562,42.111L39.373,42.111L39.373,42.078ZM39.355,42.754L39.582,42.754L39.582,42.019L39.355,42.019L39.355,42.754Z" style="fill:rgb(37,40,38);fill-rule:nonzero;"/>
        </g>
        <g transform="matrix(267.493,0,0,267.493,-10267.4,-10980.6)">
            <path d="M39.84,42.111L39.656,42.111L39.656,42.078L39.84,42.078L39.84,42.111ZM39.84,42.204L39.656,42.204L39.656,42.171L39.84,42.171L39.84,42.204ZM39.84,42.697L39.656,42.697L39.656,42.669L39.84,42.669L39.84,42.697ZM39.632,42.019L39.632,42.754L39.864,42.754L39.864,42.019L39.632,42.019Z" style="fill:rgb(37,40,38);fill-rule:nonzero;"/>
        </g>
        <g transform="matrix(267.493,0,0,267.493,-10267.4,-11200.4)">
            <path d="M39.373,42.664L39.562,42.664L39.562,42.697L39.373,42.697L39.373,42.664ZM39.373,42.171L39.562,42.171L39.562,42.204L39.373,42.204L39.373,42.171ZM39.373,42.078L39.562,42.078L39.562,42.111L39.373,42.111L39.373,42.078ZM39.355,42.754L39.582,42.754L39.582,42.019L39.355,42.019L39.355,42.754Z" style="fill:rgb(37,40,38);fill-rule:nonzero;"/>
        </g>
        <g transform="matrix(267.493,0,0,267.493,-10267.4,-11200.4)">
            <path d="M39.84,42.111L39.656,42.111L39.656,42.078L39.84,42.078L39.84,42.111ZM39.84,42.204L39.656,42.204L39.656,42.171L39.84,42.171L39.84,42.204ZM39.84,42.697L39.656,42.697L39.656,42.669L39.84,42.669L39.84,42.697ZM39.632,42.019L39.632,42.754L39.864,42.754L39.864,42.019L39.632,42.019Z" style="fill:rgb(37,40,38);fill-rule:nonzero;"/>
        </g>
        <g transform="matrix(267.493,0,0,267.493,-10417.9,-11200.4)">
            <path d="M39.373,42.664L39.562,42.664L39.562,42.697L39.373,42.697L39.373,42.664ZM39.373,42.171L39.562,42.171L39.562,42.204L39.373,42.204L39.373,42.171ZM39.373,42.078L39.562,42.078L39.562,42.111L39.373,42.111L39.373,42.078ZM39.355,42.754L39.582,42.754L39.582,42.019L39.355,42.019L39.355,42.754Z" style="fill:rgb(37,40,38);fill-rule:nonzero;"/>
        </g>
        <g transform="matrix(267.493,0,0,267.493,-10417.9,-11200.4)">
            <path d="M39.84,42.111L39.656,42.111L39.656,42.078L39.84,42.078L39.84,42.111ZM39.84,42.204L39.656,42.204L39.656,42.171L39.84,42.171L39.84,42.204ZM39.84,42.697L39.656,42.697L39.656,42.669L39.84,42.669L39.84,42.697ZM39.632,42.019L39.632,42.754L39.864,42.754L39.864,42.019L39.632,42.019Z" style="fill:rgb(37,40,38);fill-rule:nonzero;"/>
        </g>
    </g>
</svg>
