<?xml version="1.0" encoding="UTF-8" standalone="no"?>
<!DOCTYPE svg PUBLIC "-//W3C//DTD SVG 1.1//EN" "http://www.w3.org/Graphics/SVG/1.1/DTD/svg11.dtd">
<svg width="100%" height="100%" viewBox="0 0 2778 2778" version="1.1" xmlns="http://www.w3.org/2000/svg" xmlns:xlink="http://www.w3.org/1999/xlink" xml:space="preserve" xmlns:serif="http://www.serif.com/" style="fill-rule:evenodd;clip-rule:evenodd;stroke-linejoin:round;stroke-miterlimit:1.41421;">
    <g transform="matrix(5.55556,0,0,5.55556,0,0)">
        <g transform="matrix(5.68157,0,0,5.68157,-22.7124,-22.7181)">
            <path d="M66.377,65.487C64.936,65.487 63.764,64.315 63.764,62.874C63.764,61.433 64.936,60.261 66.377,60.261C67.818,60.261 68.99,61.433 68.99,62.874C68.99,64.315 67.818,65.487 66.377,65.487ZM66.377,58.261C63.834,58.261 61.764,60.331 61.764,62.874C61.764,65.417 63.834,67.487 66.377,67.487C68.92,67.487 70.99,65.417 70.99,62.874C70.99,60.331 68.92,58.261 66.377,58.261Z" style="fill:white;fill-rule:nonzero;"/>
        </g>
        <g transform="matrix(5.68157,0,0,5.68157,-22.7124,-22.7181)">
            <path d="M75.375,73.464L75.375,72.298C75.375,70.136 73.615,68.376 71.453,68.376L61.301,68.376C59.139,68.376 57.38,70.136 57.38,72.298L57.38,73.535C55.802,71.566 54.851,69.072 54.851,66.358C54.851,60.017 60.01,54.858 66.351,54.858C72.692,54.858 77.851,60.017 77.851,66.358C77.851,69.041 76.92,71.506 75.375,73.464ZM63.238,77.418L63.238,74.862L61.238,74.862L61.238,76.643C60.58,76.315 59.959,75.926 59.38,75.483L59.38,72.298C59.38,71.239 60.242,70.376 61.301,70.376L71.453,70.376C72.512,70.376 73.375,71.239 73.375,72.298L73.375,75.443C72.796,75.892 72.175,76.285 71.517,76.618L71.517,74.862L69.517,74.862L69.517,77.404C68.51,77.694 67.45,77.858 66.351,77.858C65.271,77.858 64.23,77.698 63.238,77.418ZM38.672,73.464L38.672,72.298C38.672,70.136 36.913,68.376 34.751,68.376L24.6,68.376C22.437,68.376 20.678,70.136 20.678,72.298L20.678,73.535C19.099,71.566 18.148,69.072 18.148,66.358C18.148,60.017 23.307,54.858 29.648,54.858C35.99,54.858 41.148,60.017 41.148,66.358C41.148,69.04 40.218,71.505 38.672,73.464ZM26.536,77.418L26.536,74.862L24.536,74.862L24.536,76.644C23.878,76.315 23.257,75.927 22.678,75.483L22.678,72.298C22.678,71.239 23.54,70.376 24.6,70.376L34.751,70.376C35.811,70.376 36.672,71.239 36.672,72.298L36.672,75.443C36.094,75.892 35.473,76.285 34.814,76.618L34.814,74.862L32.814,74.862L32.814,77.404C31.807,77.694 30.747,77.858 29.648,77.858C28.569,77.858 27.527,77.698 26.536,77.418ZM18.148,29.643C18.148,23.302 23.307,18.143 29.648,18.143C35.99,18.143 41.148,23.302 41.148,29.644C41.148,32.326 40.218,34.791 38.672,36.749L38.672,35.584C38.672,33.422 36.913,31.663 34.751,31.663L24.6,31.663C22.437,31.663 20.678,33.422 20.678,35.584L20.678,36.82C19.099,34.851 18.148,32.358 18.148,29.643ZM24.536,38.147L24.536,39.929C23.878,39.6 23.257,39.212 22.678,38.768L22.678,35.584C22.678,34.525 23.54,33.663 24.6,33.663L34.751,33.663C35.811,33.663 36.672,34.525 36.672,35.584L36.672,38.729C36.094,39.177 35.473,39.57 34.814,39.903L34.814,38.147L32.814,38.147L32.814,40.69C31.807,40.979 30.747,41.143 29.648,41.143C28.569,41.143 27.527,40.983 26.536,40.703L26.536,38.147L24.536,38.147ZM56.512,57.143C54.463,59.33 53.136,62.191 52.902,65.358L43.098,65.358C42.607,58.712 37.294,53.399 30.648,52.909L30.648,43.092C33.215,42.903 35.579,41.995 37.549,40.567L56.512,57.143ZM54.851,29.643C54.851,23.302 60.01,18.143 66.351,18.143C72.692,18.143 77.851,23.302 77.851,29.644C77.851,32.326 76.92,34.791 75.375,36.75L75.375,35.584C75.375,33.422 73.615,31.663 71.453,31.663L61.301,31.663C59.139,31.663 57.38,33.422 57.38,35.584L57.38,36.82C55.802,34.851 54.851,32.358 54.851,29.643ZM61.238,38.147L61.238,39.928C60.58,39.6 59.959,39.211 59.38,38.768L59.38,35.584C59.38,34.525 60.242,33.663 61.301,33.663L71.453,33.663C72.512,33.663 73.375,34.525 73.375,35.584L73.375,38.729C72.796,39.177 72.175,39.57 71.517,39.903L71.517,38.147L69.517,38.147L69.517,40.69C68.51,40.979 67.45,41.143 66.351,41.143C65.271,41.143 64.23,40.983 63.238,40.703L63.238,38.147L61.238,38.147ZM67.458,52.914L67.458,43.087C74.385,42.521 79.851,36.713 79.851,29.643C79.851,22.199 73.795,16.143 66.351,16.143C58.907,16.143 52.851,22.199 52.851,29.644C52.851,36.786 58.43,42.634 65.458,43.098L65.458,52.903C62.647,53.088 60.072,54.13 57.99,55.779L39.1,39.266C41.371,37.035 42.849,34.009 43.098,30.644L44.307,30.644L44.307,28.644L43.098,28.644C42.583,21.666 36.755,16.143 29.648,16.143C22.205,16.143 16.148,22.199 16.148,29.644C16.148,36.75 21.672,42.577 28.648,43.092L28.648,52.909C21.672,53.424 16.148,59.251 16.148,66.358C16.148,73.802 22.205,79.858 29.648,79.858C36.755,79.858 42.583,74.335 43.098,67.358L52.902,67.358C53.417,74.335 59.244,79.858 66.351,79.858C73.795,79.858 79.851,73.802 79.851,66.358C79.851,59.287 74.385,53.48 67.458,52.914Z" style="fill:white;fill-rule:nonzero;"/>
        </g>
        <g transform="matrix(5.68157,0,0,5.68157,-22.7124,-22.7181)">
            <path d="M29.675,65.487C28.234,65.487 27.063,64.315 27.063,62.874C27.063,61.433 28.234,60.261 29.675,60.261C31.116,60.261 32.288,61.433 32.288,62.874C32.288,64.315 31.116,65.487 29.675,65.487ZM29.675,58.261C27.132,58.261 25.063,60.331 25.063,62.874C25.063,65.417 27.132,67.487 29.675,67.487C32.219,67.487 34.288,65.417 34.288,62.874C34.288,60.331 32.219,58.261 29.675,58.261Z" style="fill:white;fill-rule:nonzero;"/>
        </g>
        <g transform="matrix(5.68157,0,0,5.68157,-22.7124,-22.7181)">
            <path d="M66.377,23.547C67.818,23.547 68.99,24.719 68.99,26.16C68.99,27.601 67.818,28.772 66.377,28.772C64.936,28.772 63.764,27.601 63.764,26.16C63.764,24.719 64.936,23.547 66.377,23.547ZM66.377,30.772C68.92,30.772 70.99,28.703 70.99,26.16C70.99,23.616 68.92,21.547 66.377,21.547C63.834,21.547 61.764,23.616 61.764,26.16C61.764,28.703 63.834,30.772 66.377,30.772Z" style="fill:white;fill-rule:nonzero;"/>
        </g>
        <g transform="matrix(5.68157,0,0,5.68157,-22.7124,-22.7181)">
            <path d="M29.675,23.547C31.116,23.547 32.288,24.719 32.288,26.16C32.288,27.601 31.116,28.772 29.675,28.772C28.234,28.772 27.063,27.601 27.063,26.16C27.063,24.719 28.234,23.547 29.675,23.547ZM29.675,30.772C32.219,30.772 34.288,28.703 34.288,26.16C34.288,23.616 32.219,21.547 29.675,21.547C27.132,21.547 25.063,23.616 25.063,26.16C25.063,28.703 27.132,30.772 29.675,30.772Z" style="fill:white;fill-rule:nonzero;"/>
        </g>
        <g transform="matrix(5.68157,0,0,5.68157,-22.7124,-22.7181)">
            <rect x="50.307" y="28.644" width="2" height="2" style="fill:white;fill-rule:nonzero;"/>
        </g>
        <g transform="matrix(5.68157,0,0,5.68157,-22.7124,-22.7181)">
            <rect x="46.307" y="28.644" width="2" height="2" style="fill:white;fill-rule:nonzero;"/>
        </g>
        <g transform="matrix(5.68157,0,0,5.68157,-22.7124,-22.7181)">
            <path d="M53.055,44.871L51.641,43.457L50.227,44.871L51.641,46.285L53.055,44.871Z" style="fill:white;fill-rule:nonzero;"/>
        </g>
        <g transform="matrix(5.68157,0,0,5.68157,-22.7124,-22.7181)">
            <path d="M54.469,40.628L53.055,42.042L54.469,43.457L55.883,42.042L54.469,40.628Z" style="fill:white;fill-rule:nonzero;"/>
        </g>
        <g transform="matrix(5.68157,0,0,5.68157,-22.7124,-22.7181)">
            <path d="M45.886,52.037L44.472,50.623L43.058,52.038L44.472,53.452L45.886,52.037Z" style="fill:white;fill-rule:nonzero;"/>
        </g>
        <g transform="matrix(5.68157,0,0,5.68157,-22.7124,-22.7181)">
            <path d="M43.058,54.866L41.644,53.452L40.23,54.866L41.644,56.28L43.058,54.866Z" style="fill:white;fill-rule:nonzero;"/>
        </g>
    </g>
</svg>
