<?xml version="1.0" encoding="UTF-8" standalone="no"?>
<!DOCTYPE svg PUBLIC "-//W3C//DTD SVG 1.1//EN" "http://www.w3.org/Graphics/SVG/1.1/DTD/svg11.dtd">
<svg width="100%" height="100%" viewBox="0 0 2778 2778" version="1.1" xmlns="http://www.w3.org/2000/svg" xmlns:xlink="http://www.w3.org/1999/xlink" xml:space="preserve" xmlns:serif="http://www.serif.com/" style="fill-rule:evenodd;clip-rule:evenodd;stroke-linejoin:round;stroke-miterlimit:1.41421;">
    <g transform="matrix(5.55556,0,0,5.55556,0,0)">
        <g transform="matrix(94.8054,0,0,94.8054,-1245.9,-1647.79)">
            <path d="M16.004,20.683L16.004,20.638L15.886,20.519L15.886,20.47L16.004,20.354L16.004,20.306L15.893,20.193L15.849,20.193L15.726,20.311L15.679,20.311L15.561,20.193L15.514,20.193L15.397,20.306L15.397,20.354L15.52,20.47L15.52,20.519L15.397,20.638L15.397,20.683L15.514,20.797L15.561,20.797L15.679,20.677L15.726,20.677L15.849,20.797L15.893,20.797L16.004,20.683Z" style="fill:rgb(37,40,38);fill-rule:nonzero;"/>
        </g>
        <g transform="matrix(51.193,0,0,51.193,-476.714,-693.101)">
            <path d="M16.004,20.683L16.004,20.638L15.886,20.519L15.886,20.47L16.004,20.354L16.004,20.306L15.893,20.193L15.849,20.193L15.726,20.311L15.679,20.311L15.561,20.193L15.514,20.193L15.397,20.306L15.397,20.354L15.52,20.47L15.52,20.519L15.397,20.638L15.397,20.683L15.514,20.797L15.561,20.797L15.679,20.677L15.726,20.677L15.849,20.797L15.893,20.797L16.004,20.683Z" style="fill:rgb(37,40,38);fill-rule:nonzero;"/>
        </g>
        <g transform="matrix(43.8155,0,0,43.8155,-466.103,-535.854)">
            <path d="M16.004,20.683L16.004,20.638L15.886,20.519L15.886,20.47L16.004,20.354L16.004,20.306L15.893,20.193L15.849,20.193L15.726,20.311L15.679,20.311L15.561,20.193L15.514,20.193L15.397,20.306L15.397,20.354L15.52,20.47L15.52,20.519L15.397,20.638L15.397,20.683L15.514,20.797L15.561,20.797L15.679,20.677L15.726,20.677L15.849,20.797L15.893,20.797L16.004,20.683Z" style="fill:rgb(37,40,38);fill-rule:nonzero;"/>
        </g>
        <g transform="matrix(32.1821,0,0,32.1821,-252.913,-223.636)">
            <path d="M16.004,20.683L16.004,20.638L15.886,20.519L15.886,20.47L16.004,20.354L16.004,20.306L15.893,20.193L15.849,20.193L15.726,20.311L15.679,20.311L15.561,20.193L15.514,20.193L15.397,20.306L15.397,20.354L15.52,20.47L15.52,20.519L15.397,20.638L15.397,20.683L15.514,20.797L15.561,20.797L15.679,20.677L15.726,20.677L15.849,20.797L15.893,20.797L16.004,20.683Z" style="fill:rgb(37,40,38);fill-rule:nonzero;"/>
        </g>
        <g transform="matrix(32.1821,0,0,32.1821,-279.847,-413.739)">
            <path d="M16.004,20.683L16.004,20.638L15.886,20.519L15.886,20.47L16.004,20.354L16.004,20.306L15.893,20.193L15.849,20.193L15.726,20.311L15.679,20.311L15.561,20.193L15.514,20.193L15.397,20.306L15.397,20.354L15.52,20.47L15.52,20.519L15.397,20.638L15.397,20.683L15.514,20.797L15.561,20.797L15.679,20.677L15.726,20.677L15.849,20.797L15.893,20.797L16.004,20.683Z" style="fill:rgb(37,40,38);fill-rule:nonzero;"/>
        </g>
        <g transform="matrix(86.9972,0,0,86.9972,-1090.74,-1721.36)">
            <path d="M15.832,22.339L15.915,22.423L15.915,22.451L15.839,22.519L15.805,22.519L15.731,22.446L15.704,22.446L15.628,22.519L15.603,22.519L15.527,22.451L15.527,22.423L15.603,22.339L15.603,22.316L15.527,22.238L15.527,22.212L15.603,22.14L15.628,22.14L15.704,22.221L15.731,22.221L15.805,22.14L15.839,22.14L15.915,22.212L15.915,22.238L15.832,22.316L15.832,22.339ZM16.067,22.32C16.067,22.12 15.896,21.958 15.704,21.963C15.503,21.966 15.348,22.131 15.353,22.328C15.353,22.527 15.52,22.688 15.716,22.679C15.915,22.679 16.07,22.515 16.067,22.32Z" style="fill:rgb(37,40,38);fill-rule:nonzero;"/>
        </g>
        <g transform="matrix(43.4986,0,0,43.4986,-432.709,-585.012)">
            <path d="M15.832,22.339L15.915,22.423L15.915,22.451L15.839,22.519L15.805,22.519L15.731,22.446L15.704,22.446L15.628,22.519L15.603,22.519L15.527,22.451L15.527,22.423L15.603,22.339L15.603,22.316L15.527,22.238L15.527,22.212L15.603,22.14L15.628,22.14L15.704,22.221L15.731,22.221L15.805,22.14L15.839,22.14L15.915,22.212L15.915,22.238L15.832,22.316L15.832,22.339ZM16.067,22.32C16.067,22.12 15.896,21.958 15.704,21.963C15.503,21.966 15.348,22.131 15.353,22.328C15.353,22.527 15.52,22.688 15.716,22.679C15.915,22.679 16.07,22.515 16.067,22.32Z" style="fill:rgb(37,40,38);fill-rule:nonzero;"/>
        </g>
        <g transform="matrix(67.1123,0,0,67.1123,-329.537,-1042.39)">
            <path d="M9.228,20.398L9.11,20.285L9.062,20.285L8.801,20.544L8.751,20.493L8.685,20.424L8.638,20.424L8.525,20.539L8.525,20.587L8.646,20.705L8.671,20.726L8.713,20.774L8.784,20.838L8.825,20.838L9.228,20.446L9.228,20.398Z" style="fill:rgb(37,40,38);fill-rule:nonzero;"/>
        </g>
        <g transform="matrix(45.2714,0,0,45.2714,-223.056,-594.453)">
            <path d="M9.228,20.398L9.11,20.285L9.062,20.285L8.801,20.544L8.751,20.493L8.685,20.424L8.638,20.424L8.525,20.539L8.525,20.587L8.646,20.705L8.671,20.726L8.713,20.774L8.784,20.838L8.825,20.838L9.228,20.446L9.228,20.398Z" style="fill:rgb(37,40,38);fill-rule:nonzero;"/>
        </g>
        <g transform="matrix(74.5084,0,0,74.5084,-462.135,-1317.56)">
            <path d="M9.228,20.398L9.11,20.285L9.062,20.285L8.801,20.544L8.751,20.493L8.685,20.424L8.638,20.424L8.525,20.539L8.525,20.587L8.646,20.705L8.671,20.726L8.713,20.774L8.784,20.838L8.825,20.838L9.228,20.446L9.228,20.398Z" style="fill:rgb(37,40,38);fill-rule:nonzero;"/>
        </g>
        <g transform="matrix(26.5907,0,0,26.5907,-17.2066,-152.589)">
            <path d="M9.228,20.398L9.11,20.285L9.062,20.285L8.801,20.544L8.751,20.493L8.685,20.424L8.638,20.424L8.525,20.539L8.525,20.587L8.646,20.705L8.671,20.726L8.713,20.774L8.784,20.838L8.825,20.838L9.228,20.446L9.228,20.398Z" style="fill:rgb(37,40,38);fill-rule:nonzero;"/>
        </g>
        <g transform="matrix(84.8737,0,0,84.8737,-446.259,-1475.83)">
            <path d="M9.228,20.398L9.11,20.285L9.062,20.285L8.801,20.544L8.751,20.493L8.685,20.424L8.638,20.424L8.525,20.539L8.525,20.587L8.646,20.705L8.671,20.726L8.713,20.774L8.784,20.838L8.825,20.838L9.228,20.446L9.228,20.398Z" style="fill:rgb(37,40,38);fill-rule:nonzero;"/>
        </g>
        <g transform="matrix(104.622,0,0,104.622,-1663.18,-1987.58)">
            <path d="M19.195,20.499L18.956,20.733L18.934,20.733L18.895,20.696L18.873,20.674L18.858,20.665L18.801,20.604L18.801,20.578L18.852,20.519L18.876,20.515L18.918,20.553L18.941,20.578L19.043,20.477L19.107,20.414L19.127,20.414L19.195,20.47L19.195,20.499ZM18.984,20.19C18.791,20.193 18.629,20.354 18.634,20.553C18.64,20.753 18.801,20.907 18.999,20.907C19.198,20.904 19.359,20.737 19.353,20.544C19.349,20.344 19.189,20.187 18.984,20.19Z" style="fill:rgb(37,40,38);fill-rule:nonzero;"/>
        </g>
        <g transform="matrix(196.297,0,0,196.297,-3512.63,-3908.87)">
            <path d="M19.195,20.499L18.956,20.733L18.934,20.733L18.895,20.696L18.873,20.674L18.858,20.665L18.801,20.604L18.801,20.578L18.852,20.519L18.876,20.515L18.918,20.553L18.941,20.578L19.043,20.477L19.107,20.414L19.127,20.414L19.195,20.47L19.195,20.499ZM18.984,20.19C18.791,20.193 18.629,20.354 18.634,20.553C18.64,20.753 18.801,20.907 18.999,20.907C19.198,20.904 19.359,20.737 19.353,20.544C19.349,20.344 19.189,20.187 18.984,20.19Z" style="fill:rgb(37,40,38);fill-rule:nonzero;"/>
        </g>
        <g transform="matrix(104.622,0,0,104.622,-1811.08,-1878.27)">
            <path d="M19.195,20.499L18.956,20.733L18.934,20.733L18.895,20.696L18.873,20.674L18.858,20.665L18.801,20.604L18.801,20.578L18.852,20.519L18.876,20.515L18.918,20.553L18.941,20.578L19.043,20.477L19.107,20.414L19.127,20.414L19.195,20.47L19.195,20.499ZM18.984,20.19C18.791,20.193 18.629,20.354 18.634,20.553C18.64,20.753 18.801,20.907 18.999,20.907C19.198,20.904 19.359,20.737 19.353,20.544C19.349,20.344 19.189,20.187 18.984,20.19Z" style="fill:rgb(37,40,38);fill-rule:nonzero;"/>
        </g>
    </g>
</svg>
