<?xml version="1.0" encoding="UTF-8" standalone="no"?>
<!DOCTYPE svg PUBLIC "-//W3C//DTD SVG 1.1//EN" "http://www.w3.org/Graphics/SVG/1.1/DTD/svg11.dtd">
<svg width="100%" height="100%" viewBox="0 0 500 500" version="1.1" xmlns="http://www.w3.org/2000/svg" xmlns:xlink="http://www.w3.org/1999/xlink" xml:space="preserve" xmlns:serif="http://www.serif.com/" style="fill-rule:evenodd;clip-rule:evenodd;stroke-linejoin:round;stroke-miterlimit:1.41421;">
    <g transform="matrix(150.558,0,0,150.558,-1978.71,-2835.7)">
        <path d="M16.004,20.683L16.004,20.638L15.886,20.519L15.886,20.47L16.004,20.354L16.004,20.306L15.893,20.193L15.849,20.193L15.726,20.311L15.679,20.311L15.561,20.193L15.514,20.193L15.397,20.306L15.397,20.354L15.52,20.47L15.52,20.519L15.397,20.638L15.397,20.683L15.514,20.797L15.561,20.797L15.679,20.677L15.726,20.677L15.849,20.797L15.893,20.797L16.004,20.683Z" style="fill:white;fill-rule:nonzero;"/>
    </g>
    <g transform="matrix(274.176,0,0,274.176,-5039.79,-5383.9)">
        <path d="M19.195,20.499L18.956,20.733L18.934,20.733L18.895,20.696L18.873,20.674L18.858,20.665L18.801,20.604L18.801,20.578L18.852,20.519L18.876,20.515L18.918,20.553L18.941,20.578L19.043,20.477L19.107,20.414L19.127,20.414L19.195,20.47L19.195,20.499ZM18.984,20.19C18.791,20.193 18.629,20.354 18.634,20.553C18.64,20.753 18.801,20.907 18.999,20.907C19.198,20.904 19.359,20.737 19.353,20.544C19.349,20.344 19.189,20.187 18.984,20.19Z" style="fill:white;fill-rule:nonzero;"/>
    </g>
</svg>
